<svg width="39" height="35" fill="none" xmlns="http://www.w3.org/2000/svg"><g filter="url(#a)"><path d="M12.9 27a1 1 0 0 1-.8-.4l-7-7.9A5.4 5.4 0 0 1 9.5 10c1.3 0 2.5.5 3.5 1.3a5.5 5.5 0 0 1 9 4.1c0 1.3-.5 2.5-1.3 3.4l-7 7.9c-.2.2-.4.3-.8.3Zm-6-9.5 6.1 6.9 6.2-7c.5-.5.7-1.2.7-2 0-1.8-1.5-3.3-3.3-3.3-1 0-2 .5-2.7 1.3-.3.3-.6.4-.9.4-.3 0-.6-.2-.8-.4a3.7 3.7 0 0 0-2.7-1.3 3.3 3.3 0 0 0-3.3 3.3c-.1.9.3 1.6.7 2.1-.1 0-.1 0 0 0Z" fill="#000"/><path d="M35 9.5a9.5 9.5 0 1 1-19 0 9.5 9.5 0 0 1 19 0Z" fill="#7DB54F"/><path d="M21.6 12.3H23V7.4l.1-.6-.4.5-1 .8-.4-.5 2.2-1.7h.3v6.4h1.4v.7h-3.6v-.7Zm7.9-4.7-.2 1-.6 1.2a10.9 10.9 0 0 1-1.4 2.1l-.5.4H29.6v.7h-4v-.3a33.1 33.1 0 0 0 1.8-2.2 9.7 9.7 0 0 0 1-1.9c.2-.3.2-.6.2-.9 0-.3 0-.6-.3-.8-.1-.2-.4-.3-.8-.3l-.7.1-.7.4-.3-.6.8-.5a3 3 0 0 1 1-.1l.8.1a1.5 1.5 0 0 1 1 1v.6Z" fill="#fff"/></g><defs><filter id="a" x="0" y="0" width="39" height="35" filterUnits="userSpaceOnUse" color-interpolation-filters="sRGB"><feFlood flood-opacity="0" result="BackgroundImageFix"/><feColorMatrix in="SourceAlpha" values="0 0 0 0 0 0 0 0 0 0 0 0 0 0 0 0 0 0 127 0" result="hardAlpha"/><feOffset dy="4"/><feGaussianBlur stdDeviation="2"/><feComposite in2="hardAlpha" operator="out"/><feColorMatrix values="0 0 0 0 0 0 0 0 0 0 0 0 0 0 0 0 0 0 0.25 0"/><feBlend in2="BackgroundImageFix" result="effect1_dropShadow_480:317"/><feBlend in="SourceGraphic" in2="effect1_dropShadow_480:317" result="shape"/></filter></defs></svg>